<mxfile host="app.diagrams.net" agent="Mozilla/5.0 (Windows NT 10.0; Win64; x64) AppleWebKit/537.36 (KHTML, like Gecko) Chrome/132.0.0.0 Safari/537.36 Edg/132.0.0.0" version="26.0.11">
  <diagram name="Page-1" id="2xcaAj6rjWryM21yCDnQ">
    <mxGraphModel grid="1" page="1" gridSize="10" guides="1" tooltips="1" connect="1" arrows="1" fold="1" pageScale="1" pageWidth="850" pageHeight="1100" math="0" shadow="0">
      <root>
        <mxCell id="0" />
        <mxCell id="1" parent="0" />
        <mxCell id="hEY-Xj2uo_URV7XYvVDx-2" value="Customers" style="rounded=1;whiteSpace=wrap;html=1;" vertex="1" parent="1">
          <mxGeometry x="350" y="210" width="120" height="80" as="geometry" />
        </mxCell>
        <mxCell id="hEY-Xj2uo_URV7XYvVDx-3" value="Manage Transaction Information" style="rounded=1;whiteSpace=wrap;html=1;" vertex="1" parent="1">
          <mxGeometry x="580" y="100" width="120" height="90" as="geometry" />
        </mxCell>
        <mxCell id="hEY-Xj2uo_URV7XYvVDx-4" value="" style="endArrow=none;html=1;rounded=0;entryX=1;entryY=0.25;entryDx=0;entryDy=0;exitX=0;exitY=0.25;exitDx=0;exitDy=0;" edge="1" parent="1" source="hEY-Xj2uo_URV7XYvVDx-3" target="hEY-Xj2uo_URV7XYvVDx-3">
          <mxGeometry width="50" height="50" relative="1" as="geometry">
            <mxPoint x="440" y="320" as="sourcePoint" />
            <mxPoint x="490" y="270" as="targetPoint" />
          </mxGeometry>
        </mxCell>
        <mxCell id="hEY-Xj2uo_URV7XYvVDx-5" value="1.2" style="text;html=1;align=center;verticalAlign=middle;whiteSpace=wrap;rounded=0;" vertex="1" parent="1">
          <mxGeometry x="610" y="100" width="60" height="30" as="geometry" />
        </mxCell>
        <mxCell id="hEY-Xj2uo_URV7XYvVDx-6" value="Manage Customer Information" style="rounded=1;whiteSpace=wrap;html=1;" vertex="1" parent="1">
          <mxGeometry x="130" y="100" width="120" height="80" as="geometry" />
        </mxCell>
        <mxCell id="hEY-Xj2uo_URV7XYvVDx-7" value="" style="endArrow=none;html=1;rounded=0;exitX=0;exitY=0.25;exitDx=0;exitDy=0;entryX=1;entryY=0.25;entryDx=0;entryDy=0;" edge="1" parent="1" source="hEY-Xj2uo_URV7XYvVDx-6" target="hEY-Xj2uo_URV7XYvVDx-6">
          <mxGeometry width="50" height="50" relative="1" as="geometry">
            <mxPoint x="440" y="310" as="sourcePoint" />
            <mxPoint x="490" y="260" as="targetPoint" />
          </mxGeometry>
        </mxCell>
        <mxCell id="hEY-Xj2uo_URV7XYvVDx-8" value="1.1" style="text;html=1;align=center;verticalAlign=middle;whiteSpace=wrap;rounded=0;" vertex="1" parent="1">
          <mxGeometry x="160" y="100" width="60" height="20" as="geometry" />
        </mxCell>
        <mxCell id="hEY-Xj2uo_URV7XYvVDx-9" value="Customer Info" style="endArrow=classic;html=1;rounded=0;entryX=1;entryY=0.5;entryDx=0;entryDy=0;exitX=0;exitY=0;exitDx=0;exitDy=0;" edge="1" parent="1" source="hEY-Xj2uo_URV7XYvVDx-2" target="hEY-Xj2uo_URV7XYvVDx-6">
          <mxGeometry relative="1" as="geometry">
            <mxPoint x="420" y="290" as="sourcePoint" />
            <mxPoint x="520" y="290" as="targetPoint" />
          </mxGeometry>
        </mxCell>
        <mxCell id="hEY-Xj2uo_URV7XYvVDx-11" value="Transaction Info" style="endArrow=classic;html=1;rounded=0;exitX=0.75;exitY=0;exitDx=0;exitDy=0;" edge="1" parent="1" source="hEY-Xj2uo_URV7XYvVDx-2">
          <mxGeometry relative="1" as="geometry">
            <mxPoint x="420" y="290" as="sourcePoint" />
            <mxPoint x="580" y="120" as="targetPoint" />
          </mxGeometry>
        </mxCell>
        <mxCell id="hEY-Xj2uo_URV7XYvVDx-13" value="Release Cash and Receipts" style="rounded=1;whiteSpace=wrap;html=1;" vertex="1" parent="1">
          <mxGeometry x="350" y="350" width="120" height="90" as="geometry" />
        </mxCell>
        <mxCell id="hEY-Xj2uo_URV7XYvVDx-14" value="" style="endArrow=none;html=1;rounded=0;entryX=1;entryY=0.25;entryDx=0;entryDy=0;exitX=0;exitY=0.25;exitDx=0;exitDy=0;" edge="1" parent="1" source="hEY-Xj2uo_URV7XYvVDx-13" target="hEY-Xj2uo_URV7XYvVDx-13">
          <mxGeometry width="50" height="50" relative="1" as="geometry">
            <mxPoint x="360" y="390" as="sourcePoint" />
            <mxPoint x="430" y="250" as="targetPoint" />
          </mxGeometry>
        </mxCell>
        <mxCell id="hEY-Xj2uo_URV7XYvVDx-15" value="1.3" style="text;html=1;align=center;verticalAlign=middle;whiteSpace=wrap;rounded=0;" vertex="1" parent="1">
          <mxGeometry x="370" y="350" width="60" height="30" as="geometry" />
        </mxCell>
        <mxCell id="hEY-Xj2uo_URV7XYvVDx-16" value="" style="endArrow=classic;html=1;rounded=0;exitX=-0.023;exitY=0.884;exitDx=0;exitDy=0;exitPerimeter=0;entryX=1;entryY=0.25;entryDx=0;entryDy=0;" edge="1" parent="1" source="hEY-Xj2uo_URV7XYvVDx-3" target="hEY-Xj2uo_URV7XYvVDx-2">
          <mxGeometry relative="1" as="geometry">
            <mxPoint x="370" y="270" as="sourcePoint" />
            <mxPoint x="470" y="270" as="targetPoint" />
          </mxGeometry>
        </mxCell>
        <mxCell id="hEY-Xj2uo_URV7XYvVDx-17" value="Confirmation Details" style="edgeLabel;resizable=0;html=1;;align=center;verticalAlign=middle;" connectable="0" vertex="1" parent="hEY-Xj2uo_URV7XYvVDx-16">
          <mxGeometry relative="1" as="geometry" />
        </mxCell>
        <mxCell id="hEY-Xj2uo_URV7XYvVDx-20" value="" style="endArrow=classic;html=1;rounded=0;exitX=0.916;exitY=1.03;exitDx=0;exitDy=0;exitPerimeter=0;entryX=0.805;entryY=-0.031;entryDx=0;entryDy=0;entryPerimeter=0;" edge="1" parent="1">
          <mxGeometry relative="1" as="geometry">
            <mxPoint x="469.32000000000005" y="292.4" as="sourcePoint" />
            <mxPoint x="470.0000000000001" y="350.00000000000006" as="targetPoint" />
          </mxGeometry>
        </mxCell>
        <mxCell id="hEY-Xj2uo_URV7XYvVDx-21" value="Confirmation Details" style="edgeLabel;resizable=0;html=1;;align=center;verticalAlign=middle;" connectable="0" vertex="1" parent="hEY-Xj2uo_URV7XYvVDx-20">
          <mxGeometry relative="1" as="geometry" />
        </mxCell>
        <mxCell id="hEY-Xj2uo_URV7XYvVDx-28" value="" style="endArrow=classic;html=1;rounded=0;entryX=0.09;entryY=1.024;entryDx=0;entryDy=0;entryPerimeter=0;" edge="1" parent="1">
          <mxGeometry relative="1" as="geometry">
            <mxPoint x="350.2" y="350" as="sourcePoint" />
            <mxPoint x="349.99999999999994" y="291.91999999999996" as="targetPoint" />
          </mxGeometry>
        </mxCell>
        <mxCell id="hEY-Xj2uo_URV7XYvVDx-29" value="Cash and Receipts" style="edgeLabel;resizable=0;html=1;;align=center;verticalAlign=middle;" connectable="0" vertex="1" parent="hEY-Xj2uo_URV7XYvVDx-28">
          <mxGeometry relative="1" as="geometry" />
        </mxCell>
      </root>
    </mxGraphModel>
  </diagram>
</mxfile>
